<svg width="25" height="24" viewBox="0 0 25 24" fill="none" xmlns="http://www.w3.org/2000/svg">
<path d="M21.5 12.4023C21.5 11.7969 21.4464 11.2222 21.3544 10.6628H12.6954V14.1188H17.6533C17.431 15.2529 16.7797 16.2107 15.8142 16.8621V19.1609H18.772C20.5038 17.5594 21.5 15.1992 21.5 12.4023Z" fill="#4285F4"/>
<path d="M12.6954 21.3908C15.1782 21.3908 17.2548 20.5632 18.772 19.1609L15.8142 16.8621C14.9866 17.4138 13.9368 17.751 12.6954 17.751C10.2969 17.751 8.26628 16.1341 7.53831 13.9502H4.48851V16.318C5.99808 19.3218 9.10153 21.3908 12.6954 21.3908Z" fill="#34A853"/>
<path d="M7.53831 13.9502C7.34674 13.3985 7.24713 12.8084 7.24713 12.1954C7.24713 11.5824 7.35441 10.9923 7.53831 10.4406V8.0728H4.48851C3.86015 9.31418 3.5 10.7088 3.5 12.1954C3.5 13.682 3.86015 15.0766 4.48851 16.318L7.53831 13.9502Z" fill="#FBBC05"/>
<path d="M12.6954 6.63985C14.0517 6.63985 15.2625 7.10728 16.2203 8.01916L18.841 5.39847C17.2548 3.91188 15.1782 3 12.6954 3C9.10153 3 5.99808 5.06897 4.48851 8.0728L7.53831 10.4406C8.26628 8.25671 10.2969 6.63985 12.6954 6.63985Z" fill="#EA4335"/>
</svg>
