<svg width="24" height="24" viewBox="0 0 24 24" fill="none" xmlns="http://www.w3.org/2000/svg">
<path d="M12.0024 4.03125C16.7777 4.03125 20.7505 7.46743 21.5839 12.0018C20.7514 16.5361 16.7777 19.9723 12.0024 19.9723C7.22721 19.9723 3.25435 16.5361 2.42188 12.0018C3.25435 7.46743 7.22721 4.03125 12.0024 4.03125ZM12.0024 18.2011C13.8088 18.2009 15.5615 17.5875 16.9738 16.4613C18.3861 15.335 19.3742 13.7628 19.7764 12.0018C19.3731 10.2419 18.3846 8.67094 16.9725 7.54584C15.5604 6.42075 13.8084 5.8081 12.0029 5.8081C10.1974 5.8081 8.44534 6.42075 7.03326 7.54584C5.62119 8.67094 4.63268 10.2419 4.22941 12.0018C4.63157 13.7626 5.61954 15.3348 7.03162 16.461C8.4437 17.5872 10.1963 18.2007 12.0024 18.2011ZM12.0024 15.987C10.9455 15.987 9.93182 15.5672 9.18444 14.8198C8.43706 14.0724 8.01718 13.0587 8.01718 12.0018C8.01718 10.9448 8.43706 9.93115 9.18444 9.18377C9.93182 8.43639 10.9455 8.01651 12.0024 8.01651C13.0594 8.01651 14.0731 8.43639 14.8204 9.18377C15.5678 9.93115 15.9877 10.9448 15.9877 12.0018C15.9877 13.0587 15.5678 14.0724 14.8204 14.8198C14.0731 15.5672 13.0594 15.987 12.0024 15.987ZM12.0024 14.2158C12.5896 14.2158 13.1528 13.9825 13.568 13.5673C13.9832 13.1521 14.2165 12.589 14.2165 12.0018C14.2165 11.4146 13.9832 10.8514 13.568 10.4362C13.1528 10.021 12.5896 9.78774 12.0024 9.78774C11.4152 9.78774 10.8521 10.021 10.4369 10.4362C10.0217 10.8514 9.78841 11.4146 9.78841 12.0018C9.78841 12.589 10.0217 13.1521 10.4369 13.5673C10.8521 13.9825 11.4152 14.2158 12.0024 14.2158Z" fill="#576F8A"/>
</svg>
