<svg width="16" height="16" viewBox="0 0 16 16" fill="none" xmlns="http://www.w3.org/2000/svg">
<path d="M2.28044 13.6676C2.16744 13.6676 2.06596 13.6399 1.97599 13.5847C1.88603 13.5295 1.81605 13.4567 1.76608 13.3663C1.71409 13.2765 1.68549 13.1793 1.68029 13.0746C1.67509 12.9699 1.70334 12.8662 1.76504 12.7635L7.47221 2.905C7.53391 2.80231 7.61113 2.72639 7.70386 2.67725C7.79659 2.62809 7.89424 2.60352 7.99681 2.60352C8.09938 2.60352 8.19703 2.62809 8.28976 2.67725C8.38249 2.72639 8.45971 2.80231 8.52141 2.905L14.2286 12.7635C14.2903 12.8662 14.3185 12.9699 14.3133 13.0746C14.3081 13.1793 14.2795 13.2765 14.2275 13.3663C14.1776 13.4567 14.1076 13.5295 14.0176 13.5847C13.9277 13.6399 13.8262 13.6676 13.7132 13.6676H2.28044ZM7.99681 11.8727C8.14938 11.8727 8.27726 11.8211 8.38046 11.7179C8.48366 11.6147 8.53526 11.4868 8.53526 11.3342C8.53526 11.1817 8.48366 11.0538 8.38046 10.9506C8.27726 10.8474 8.14938 10.7958 7.99681 10.7958C7.84424 10.7958 7.71636 10.8474 7.61316 10.9506C7.50996 11.0538 7.45836 11.1817 7.45836 11.3342C7.45836 11.4868 7.50996 11.6147 7.61316 11.7179C7.71636 11.8211 7.84424 11.8727 7.99681 11.8727ZM7.99703 10.1291C8.13876 10.1291 8.25749 10.0812 8.35321 9.98538C8.44893 9.88955 8.49679 9.7708 8.49679 9.62915V7.29578C8.49679 7.15412 8.44886 7.03537 8.35299 6.93955C8.25712 6.84372 8.13832 6.7958 7.99659 6.7958C7.85486 6.7958 7.73613 6.84372 7.64041 6.93955C7.54469 7.03537 7.49683 7.15412 7.49683 7.29578V9.62915C7.49683 9.7708 7.54476 9.88955 7.64063 9.98538C7.7365 10.0812 7.8553 10.1291 7.99703 10.1291Z" fill="#D82C0D"/>
</svg>
